<svg xmlns="http://www.w3.org/2000/svg" width="512" height="128" viewBox="0 0 512 128">
  <defs>
    <filter id="soft" x="-30%" y="-30%" width="160%" height="160%"><feGaussianBlur stdDeviation="1.6"/></filter>
    <filter id="glow" x="-60%" y="-60%" width="220%" height="220%"><feGaussianBlur stdDeviation="3.8"/></filter>
    <linearGradient id="slotMetal" x1="0" y1="0" x2="1" y2="1"><stop stop-color="#6b5738"/><stop offset=".35" stop-color="#181714"/><stop offset="1" stop-color="#030303"/></linearGradient>
    <radialGradient id="emberBloom"><stop stop-color="#fff2ba"/><stop offset=".28" stop-color="#f3a14b" stop-opacity=".62"/><stop offset="1" stop-color="#d55a28" stop-opacity="0"/></radialGradient>
    
  <linearGradient id="floor0" x1="0" y1="0" x2="1" y2="1"><stop stop-color="#514936"/><stop offset=".44" stop-color="#25241f"/><stop offset="1" stop-color="#0b0c0b"/></linearGradient>
  <linearGradient id="floor1" x1="0" y1="0" x2="1" y2="1"><stop stop-color="#494231"/><stop offset=".5" stop-color="#211f1a"/><stop offset="1" stop-color="#090b0b"/></linearGradient>
  <linearGradient id="floor2" x1="0" y1="0" x2="1" y2="1"><stop stop-color="#403b31"/><stop offset=".55" stop-color="#1d1c18"/><stop offset="1" stop-color="#080a0b"/></linearGradient>
  <linearGradient id="floor3" x1="0" y1="0" x2="1" y2="1"><stop stop-color="#383a35"/><stop offset=".42" stop-color="#171b1b"/><stop offset="1" stop-color="#070909"/></linearGradient>
  
  </defs>
  <rect width="512" height="128" fill="transparent"/>
  <g transform="translate(0 0)"><rect width="128" height="128" fill="url(#floor0)"/>
       
    <path d="M0 31H128M0 64H128M0 96H128M31 0V128M64 0V128M96 0V128" stroke="#080909" stroke-width="1" opacity="0.38"/>
    <path d="M31 0l8 31M96 31l-11 33M64 64l14 32M27 96l-12 32" stroke="#080909" stroke-width="1" opacity="0.30400000000000005"/>
  
       <path d="M28 30l-14 -7.5l8 5" stroke="#caa773" stroke-width="2" opacity="0.16" fill="none" stroke-linecap="round"/><path d="M51 49l-7 -2.5l4 6" stroke="#caa773" stroke-width="1" opacity="0.16" fill="none" stroke-linecap="round"/><path d="M74 68l0 2.5l0 7" stroke="#caa773" stroke-width="1" opacity="0.16" fill="none" stroke-linecap="round"/><path d="M97 87l7 7.5l8 8" stroke="#caa773" stroke-width="2" opacity="0.16" fill="none" stroke-linecap="round"/><path d="M2 106l14 -7.5l4 5" stroke="#caa773" stroke-width="1" opacity="0.16" fill="none" stroke-linecap="round"/><path d="M25 7l-14 -2.5l0 6" stroke="#caa773" stroke-width="1" opacity="0.16" fill="none" stroke-linecap="round"/><path d="M48 26l-7 2.5l8 7" stroke="#caa773" stroke-width="2" opacity="0.16" fill="none" stroke-linecap="round"/><path d="M71 45l0 7.5l4 8" stroke="#caa773" stroke-width="1" opacity="0.16" fill="none" stroke-linecap="round"/><path d="M94 64l7 -7.5l0 5" stroke="#caa773" stroke-width="1" opacity="0.16" fill="none" stroke-linecap="round"/><path d="M117 83l14 -2.5l8 6" stroke="#caa773" stroke-width="2" opacity="0.16" fill="none" stroke-linecap="round"/><path d="M22 102l-14 2.5l4 7" stroke="#caa773" stroke-width="1" opacity="0.16" fill="none" stroke-linecap="round"/><path d="M45 3l-7 7.5l0 8" stroke="#caa773" stroke-width="1" opacity="0.16" fill="none" stroke-linecap="round"/><path d="M68 22l0 -7.5l8 5" stroke="#caa773" stroke-width="2" opacity="0.16" fill="none" stroke-linecap="round"/>
       <circle cx="31" cy="92" r="5" fill="#80643a" opacity=".25"/>
       <circle cx="96" cy="41" r="3" fill="#c79a52" opacity=".22"/></g><g transform="translate(128 0)"><rect width="128" height="128" fill="url(#floor1)"/>
       
    <path d="M0 31H128M0 64H128M0 96H128M31 0V128M64 0V128M96 0V128" stroke="#050606" stroke-width="1" opacity="0.48"/>
    <path d="M31 0l8 31M96 31l-11 33M64 64l14 32M27 96l-12 32" stroke="#050606" stroke-width="1" opacity="0.384"/>
  
       <path d="M61 81l-14 -7.5l8 5" stroke="#ddc191" stroke-width="2" opacity="0.22" fill="none" stroke-linecap="round"/><path d="M84 100l-7 -2.5l4 6" stroke="#ddc191" stroke-width="1" opacity="0.22" fill="none" stroke-linecap="round"/><path d="M107 1l0 2.5l0 7" stroke="#ddc191" stroke-width="1" opacity="0.22" fill="none" stroke-linecap="round"/><path d="M12 20l7 7.5l8 8" stroke="#ddc191" stroke-width="2" opacity="0.22" fill="none" stroke-linecap="round"/><path d="M35 39l14 -7.5l4 5" stroke="#ddc191" stroke-width="1" opacity="0.22" fill="none" stroke-linecap="round"/><path d="M58 58l-14 -2.5l0 6" stroke="#ddc191" stroke-width="1" opacity="0.22" fill="none" stroke-linecap="round"/><path d="M81 77l-7 2.5l8 7" stroke="#ddc191" stroke-width="2" opacity="0.22" fill="none" stroke-linecap="round"/><path d="M104 96l0 7.5l4 8" stroke="#ddc191" stroke-width="1" opacity="0.22" fill="none" stroke-linecap="round"/><path d="M9 115l7 -7.5l0 5" stroke="#ddc191" stroke-width="1" opacity="0.22" fill="none" stroke-linecap="round"/><path d="M32 16l14 -2.5l8 6" stroke="#ddc191" stroke-width="2" opacity="0.22" fill="none" stroke-linecap="round"/><path d="M55 35l-14 2.5l4 7" stroke="#ddc191" stroke-width="1" opacity="0.22" fill="none" stroke-linecap="round"/><path d="M78 54l-7 7.5l0 8" stroke="#ddc191" stroke-width="1" opacity="0.22" fill="none" stroke-linecap="round"/><path d="M101 73l0 -7.5l8 5" stroke="#ddc191" stroke-width="2" opacity="0.22" fill="none" stroke-linecap="round"/>
       <path d="M15 82c18-17 31-13 45-5c16 9 30 5 51-10" stroke="#0a0b0b" stroke-width="5" opacity=".42" fill="none"/>
       <path d="M19 84c15-13 27-10 42-3" stroke="#b19a71" stroke-width="1" opacity=".28" fill="none"/></g><g transform="translate(256 0)"><rect width="128" height="128" fill="url(#floor2)"/>
       
    <path d="M0 31H128M0 64H128M0 96H128M31 0V128M64 0V128M96 0V128" stroke="#080909" stroke-width="1" opacity="0.36"/>
    <path d="M31 0l8 31M96 31l-11 33M64 64l14 32M27 96l-12 32" stroke="#080909" stroke-width="1" opacity="0.288"/>
  
       <circle cx="64" cy="64" r="29" fill="none" stroke="#a87638" stroke-width="3" opacity=".52"/>
       <circle cx="64" cy="64" r="18" fill="none" stroke="#f0b45c" stroke-width="1" opacity=".38"/>
       <path d="M64 26v76M26 64h76M38 38l52 52M90 38L38 90" stroke="#d29745" stroke-width="1" opacity=".3"/>
       <path d="M105 31l-14 -7.5l8 5" stroke="#0a0a0a" stroke-width="2" opacity="0.28" fill="none" stroke-linecap="round"/><path d="M10 50l-7 -2.5l4 6" stroke="#0a0a0a" stroke-width="1" opacity="0.28" fill="none" stroke-linecap="round"/><path d="M33 69l0 2.5l0 7" stroke="#0a0a0a" stroke-width="1" opacity="0.28" fill="none" stroke-linecap="round"/><path d="M56 88l7 7.5l8 8" stroke="#0a0a0a" stroke-width="2" opacity="0.28" fill="none" stroke-linecap="round"/><path d="M79 107l14 -7.5l4 5" stroke="#0a0a0a" stroke-width="1" opacity="0.28" fill="none" stroke-linecap="round"/><path d="M102 8l-14 -2.5l0 6" stroke="#0a0a0a" stroke-width="1" opacity="0.28" fill="none" stroke-linecap="round"/><path d="M7 27l-7 2.5l8 7" stroke="#0a0a0a" stroke-width="2" opacity="0.28" fill="none" stroke-linecap="round"/><path d="M30 46l0 7.5l4 8" stroke="#0a0a0a" stroke-width="1" opacity="0.28" fill="none" stroke-linecap="round"/><path d="M53 65l7 -7.5l0 5" stroke="#0a0a0a" stroke-width="1" opacity="0.28" fill="none" stroke-linecap="round"/><path d="M76 84l14 -2.5l8 6" stroke="#0a0a0a" stroke-width="2" opacity="0.28" fill="none" stroke-linecap="round"/><path d="M99 103l-14 2.5l4 7" stroke="#0a0a0a" stroke-width="1" opacity="0.28" fill="none" stroke-linecap="round"/><path d="M4 4l-7 7.5l0 8" stroke="#0a0a0a" stroke-width="1" opacity="0.28" fill="none" stroke-linecap="round"/><path d="M27 23l0 -7.5l8 5" stroke="#0a0a0a" stroke-width="2" opacity="0.28" fill="none" stroke-linecap="round"/></g><g transform="translate(384 0)"><rect width="128" height="128" fill="url(#floor3)"/>
       
    <path d="M0 31H128M0 64H128M0 96H128M31 0V128M64 0V128M96 0V128" stroke="#050606" stroke-width="1" opacity="0.32"/>
    <path d="M31 0l8 31M96 31l-11 33M64 64l14 32M27 96l-12 32" stroke="#050606" stroke-width="1" opacity="0.256"/>
  
       <rect x="31" y="30" width="66" height="66" fill="#070808" opacity=".82"/>
       <path d="M39 30v66M52 30v66M65 30v66M78 30v66M91 30v66M31 39h66M31 52h66M31 65h66M31 78h66M31 91h66" stroke="#56605a" stroke-width="2" opacity=".62"/>
       <path d="M35 34h58M35 92h58" stroke="#b78a4f" opacity=".22"/></g>
</svg>